<svg width="228" height="228" viewBox="0 0 228 228" fill="none" xmlns="http://www.w3.org/2000/svg">
<path d="M0 55.4878C0 34.5161 0 24.0302 6.51509 17.5151C13.0302 11 23.5161 11 44.4878 11H183.512C204.484 11 214.97 11 221.485 17.5151C228 24.0302 228 34.5161 228 55.4878V102.756C228 146.972 228 169.081 217.937 185.263C212.532 193.956 205.199 201.288 196.507 206.693C180.325 216.756 158.216 216.756 114 216.756C69.7836 216.756 47.6755 216.756 31.4928 206.693C22.8006 201.288 15.4682 193.956 10.063 185.263C0 169.081 0 146.972 0 102.756V55.4878Z" fill="#F50057"/>
<path d="M137.532 170.977C119.799 170.977 110.932 165.142 110.932 153.472C110.932 146.819 115.165 133.538 123.633 113.63C132.1 93.6693 136.334 79.8342 136.334 72.1245C136.334 67.7944 134.71 64.7317 131.461 62.9363C128.266 61.088 123.606 60.1639 117.482 60.1639C111.411 60.1639 105.234 60.692 98.9497 61.7481C92.6657 62.8042 88.6184 63.3323 86.8078 63.3323C85.0504 63.3323 84.1717 62.5402 84.1717 60.956C84.1717 58.8966 87.9261 56.1771 95.4349 52.7975C109.867 46.2496 125.763 42.9756 143.124 42.9756C156.863 42.9756 167.141 45.4311 173.958 50.342C180.828 55.253 184.262 63.2267 184.262 74.2631C184.262 80.8111 183.091 89.0224 180.748 98.8971C178.405 108.719 176.061 117.96 173.718 126.62C171.428 135.28 170.283 141.221 170.283 144.442C170.283 147.663 170.896 149.908 172.121 151.175C173.665 152.759 176.647 153.551 181.067 153.551C183.783 153.551 185.301 153.842 185.62 154.423C185.993 155.004 186.18 155.611 186.18 156.244C186.18 158.674 185.061 160.654 182.825 162.185C174.357 168.047 159.26 170.977 137.532 170.977ZM91.0415 113.63L111.491 113.155C115.219 113.155 117.083 114.237 117.083 116.402C117.083 117.934 116.204 119.148 114.447 120.046C108.269 123.161 97.6183 125.142 82.4942 125.987C78.1807 134.436 76.0239 141.855 76.0239 148.244C76.0239 151.096 76.3967 153.736 77.1422 156.165C77.8878 158.542 78.2605 160.258 78.2605 161.314C78.2605 164.113 76.4765 166.014 72.9085 167.017C69.3405 167.967 64.095 168.443 57.172 168.443C50.3022 168.443 45.7757 167.835 43.5923 166.621C41.4088 165.353 40.3171 163.136 40.3171 159.967C40.3171 154.053 42.0479 147.531 45.5094 140.403C49.0242 133.274 53.4975 126.462 58.9294 119.967C64.3613 113.419 70.379 107.003 76.9824 100.719C83.5859 94.435 90.003 89.0224 96.2337 84.4811C110.08 74.2895 119.506 69.1938 124.512 69.1938C126.801 69.1938 127.946 69.8802 127.946 71.2532C127.946 72.6262 126.828 74.1575 124.591 75.8473C119.852 79.2797 114.18 84.5075 107.577 91.5307C100.973 98.5539 95.0888 105.92 89.9231 113.63H91.0415Z" fill="white"/>
</svg>
